<svg xmlns="http://www.w3.org/2000/svg" viewBox="0 0 180 180" role="img" aria-label="VB sovereign seal"><defs><linearGradient id="g" x1="0" y1="0" x2="1" y2="1"><stop offset="0" stop-color="#fff4c7"/><stop offset=".45" stop-color="#c99732"/><stop offset="1" stop-color="#7c581c"/></linearGradient></defs><circle cx="90" cy="90" r="84" fill="none" stroke="url(#g)" stroke-width="7"/><circle cx="90" cy="90" r="69" fill="#fffaf0" stroke="#b88a2c" stroke-width="1.5"/><path d="M56 57h18l16 54 16-54h18l-23 74H79L56 57Zm58 0h27c19 0 29 8 29 22 0 9-5 16-14 20 11 3 17 10 17 22 0 17-12 30-34 30h-25V57Zm17 15v23h8c8 0 13-5 13-12s-5-11-14-11h-7Zm0 38v26h10c9 0 15-5 15-13 0-9-6-13-16-13h-9Z" fill="#07152e"/></svg>